HIERARCHY
ROOT Hips
{
	OFFSET 0.00 0.00 0.00
	CHANNELS 6 Xposition Yposition Zposition Xrotation Yrotation Zrotation
	JOINT Spine
	{
		OFFSET 0.00000 6.11665 0.00000
		CHANNELS 3 Xrotation Yrotation Zrotation
		JOINT Head
		{
			OFFSET 0.00000 15.22556 0.00000
			CHANNELS 3 Xrotation Yrotation Zrotation
			End Site
			{
				OFFSET 0.00000 4.52755 0.00000
			}
		}
		JOINT LeftShoulder
		{
			OFFSET 0.00000 8.97765 0.00000
			CHANNELS 3 Xrotation Yrotation Zrotation
			JOINT LeftArm
			{
				OFFSET 7.11013 0.00000 0.00000
				CHANNELS 3 Xrotation Yrotation Zrotation
				JOINT LeftForeArm
				{
					OFFSET 10.39834 0.00000 0.00000
					CHANNELS 3 Yrotation Zrotation Xrotation
					JOINT LeftHand
					{
						OFFSET 8.88900 0.00000 0.00000
						CHANNELS 3 Xrotation Yrotation Zrotation
						JOINT LeftHandThumb1
						{
							OFFSET 0.00000 0.00000 0.00000
							CHANNELS 3 Xrotation Zrotation Yrotation
							End Site
							{
								OFFSET 0.00000 0.00000 3.93700
							}
						}
						End Site
						{
							OFFSET 3.93700 0.00000 0.00000
						}
					}
				}
			}
		}
		JOINT RightShoulder
		{
			OFFSET 0.00000 8.97765 0.00000
			CHANNELS 3 Xrotation Yrotation Zrotation
			JOINT RightArm
			{
				OFFSET -7.11013 0.00000 0.00000
				CHANNELS 3 Xrotation Yrotation Zrotation
				JOINT RightForeArm
				{
					OFFSET -10.39834 0.00000 0.00000
					CHANNELS 3 Yrotation Zrotation Xrotation
					JOINT RightHand
					{
						OFFSET -8.88900 0.00000 0.00000
						CHANNELS 3 Xrotation Yrotation Zrotation
						JOINT RightHandThumb1
						{
							OFFSET 0.00000 0.00000 0.00000
							CHANNELS 3 Xrotation Zrotation Yrotation
							End Site
							{
								OFFSET 0.00000 0.00000 3.93700
							}
						}
						End Site
						{
							OFFSET -3.93700 0.00000 0.00000
						}
					}
				}
			}
		}
	}
	JOINT LeftUpLeg
	{
		OFFSET 4.71176 0.00000 0.00000
		CHANNELS 3 Xrotation Yrotation Zrotation
		JOINT LeftLeg
		{
			OFFSET 0.00000 -15.51045 0.00000
			CHANNELS 3 Xrotation Yrotation Zrotation
			JOINT LeftFoot
			{
				OFFSET 0.00000 -14.85806 0.00000
				CHANNELS 3 Xrotation Yrotation Zrotation
				JOINT LeftToeBase
				{
					OFFSET 0.00000 -1.32744 4.95409
					CHANNELS 3 Xrotation Yrotation Zrotation
					End Site
					{
						OFFSET 0.00000 0.00000 2.95275
					}
				}
			}
		}
	}
	JOINT RightUpLeg
	{
		OFFSET -4.71176 0.00000 0.00000
		CHANNELS 3 Xrotation Yrotation Zrotation
		JOINT RightLeg
		{
			OFFSET 0.00000 -15.51045 0.00000
			CHANNELS 3 Xrotation Yrotation Zrotation
			JOINT RightFoot
			{
				OFFSET 0.00000 -14.85806 0.00000
				CHANNELS 3 Xrotation Yrotation Zrotation
				JOINT RightToeBase
				{
					OFFSET 0.00000 -1.32744 4.95409
					CHANNELS 3 Xrotation Yrotation Zrotation
					End Site
					{
						OFFSET 0.00000 0.00000 2.95275
					}
				}
			}
		}
	}
}
MOTION
Frames: 11
Frame Time: 0.008333
 4.7725 32.2830 2.1773 -5.0621 -2.1212 0.0615 1.8178 1.4600 0.5740 9.1960 -3.4645 2.2058 -7.0018 7.1483 25.8778 -6.0392 -35.3960 -102.4242 -12.2904 -0.0000 3.0494 -0.8036 -10.4769 -4.4107 33.1476 -0.0000 26.2537 7.9423 -18.0092 -20.6961 5.8117 -44.6440 101.6053 56.1479 0.0000 -2.2965 10.0946 24.7892 -23.0064 32.8623 0.0000 -24.3270 9.2024 -2.3103 -3.4883 3.4521 -0.0000 -0.0000 -13.4573 23.1343 -11.7986 16.9995 0.0000 -0.0000 7.7227 -4.3621 3.1418 4.3693 0.0000 -0.0000 -11.0559 -18.2174 5.9199 8.7106 -0.0000 0.0000
 4.7637 32.2839 2.1802 -5.0931 -2.0934 0.0411 1.8426 1.4734 0.5436 9.2327 -3.5209 2.2705 -7.0213 7.1077 25.8880 -6.0235 -35.4469 -102.3963 -12.2662 -0.0000 2.9711 -0.8055 -10.4879 -4.4168 33.1476 -0.0000 26.2537 7.9321 -17.9664 -20.7206 5.7717 -44.5606 101.5071 55.3539 0.0000 -2.8415 10.0345 24.7138 -22.9396 32.8623 0.0000 -24.3270 9.2523 -2.2841 -3.4443 3.4280 -0.0000 -0.0000 -13.4464 23.0921 -11.8717 16.9240 -0.0000 0.0000 7.8019 -4.2495 3.1776 4.2856 0.0000 -0.0000 -11.0056 -18.3241 5.9945 8.7679 0.0000 -0.0000
 4.7606 32.2841 2.1789 -5.0925 -2.0600 0.0397 1.8414 1.4830 0.5106 9.2575 -3.5652 2.3244 -7.0360 7.0830 25.8844 -6.0320 -35.4823 -102.3813 -12.2265 -0.0000 2.9655 -0.7917 -10.4927 -4.3395 33.1476 -0.0000 26.2537 7.9376 -17.9310 -20.7796 5.6980 -44.4508 101.4076 54.4718 0.0000 -3.5623 10.2595 24.4170 -23.6467 32.8623 0.0000 -24.3270 9.2432 -2.3010 -3.4344 3.4423 0.0000 -0.0000 -13.4453 23.0829 -11.8681 16.8886 0.0000 -0.0000 7.8061 -4.2514 3.1893 4.2812 -0.0000 0.0000 -11.0028 -18.3560 6.0228 8.7799 0.0000 0.0000
 4.7569 32.2844 2.1777 -5.0874 -2.0216 0.0466 1.8272 1.5039 0.4609 9.3065 -3.6237 2.3778 -7.0157 7.0645 25.8818 -6.0870 -35.5358 -102.3675 -12.1816 -0.0000 2.9456 -0.7975 -10.4893 -4.3725 33.1476 -0.0000 26.2537 7.9770 -17.9153 -20.8108 5.5783 -44.3003 101.2723 53.4466 0.0000 -4.0971 10.3652 24.4383 -23.8507 32.8623 0.0000 -24.3270 9.2322 -2.3273 -3.4254 3.4302 -0.0000 -0.0000 -13.4199 23.0543 -11.8202 16.8405 -0.0000 -0.0000 7.8020 -4.2985 3.1940 4.2884 0.0000 -0.0000 -11.0104 -18.3458 6.0013 8.8112 0.0000 0.0000
 4.7552 32.2841 2.1795 -5.0971 -1.9760 0.0712 1.8351 1.5186 0.3928 9.3241 -3.6903 2.4361 -7.0283 7.0451 25.8864 -6.1127 -35.5713 -102.3590 -12.1289 -0.0000 2.9700 -0.8106 -10.5411 -4.4223 33.1476 -0.0000 26.2537 8.0431 -17.9421 -20.8528 5.3166 -43.9424 101.0553 52.2099 0.0000 -4.6618 10.6261 24.1367 -24.6464 32.8623 0.0000 -24.3270 9.2376 -2.3253 -3.4374 3.4351 0.0000 -0.0000 -13.4229 23.0265 -11.9022 16.9548 0.0000 0.0000 7.7949 -4.3897 3.1707 4.3500 0.0000 0.0000 -11.0590 -18.2795 6.0232 8.8444 -0.0000 -0.0000
 4.7501 32.2841 2.1779 -5.0773 -1.9321 0.0773 1.8223 1.5519 0.3328 9.3146 -3.7642 2.5084 -7.0532 7.0192 25.8939 -6.1244 -35.5986 -102.3451 -12.0942 -0.0000 2.9961 -0.7991 -10.4935 -4.3797 33.1476 -0.0000 26.2537 8.0882 -17.9666 -20.9090 5.1501 -43.6364 100.8864 50.8812 0.0000 -5.1484 10.3433 24.3929 -23.8418 32.8623 0.0000 -24.3270 9.2076 -2.3777 -3.4295 3.4562 -0.0000 -0.0000 -13.4338 23.0333 -11.9236 17.0269 -0.0000 0.0000 7.7818 -4.4916 3.1739 4.3492 -0.0000 0.0000 -11.0468 -18.2157 6.0728 8.7517 0.0000 -0.0000
 4.7453 32.2845 2.1758 -5.0448 -1.8957 0.0828 1.7802 1.5890 0.2857 9.3313 -3.9540 2.6036 -7.0454 6.9953 25.8776 -6.1342 -35.6161 -102.3103 -12.0681 -0.0000 3.0327 -0.8015 -10.4865 -4.3953 33.1476 -0.0000 26.2537 8.1481 -17.9878 -20.9945 4.8792 -43.1705 100.6347 49.3091 0.0000 -5.4077 10.5335 24.1944 -24.4041 32.8623 0.0000 -24.3270 9.1668 -2.3765 -3.4162 3.4492 -0.0000 0.0000 -13.4035 23.0086 -11.9568 16.9801 -0.0000 -0.0000 7.7506 -4.5299 3.1839 4.3503 -0.0000 0.0000 -11.0497 -18.2214 6.0557 8.7342 -0.0000 0.0000
 4.7401 32.2849 2.1776 -5.0422 -1.8300 0.0970 1.7702 1.6041 0.2098 9.3600 -4.0694 2.6847 -7.0646 6.9636 25.8889 -6.1225 -35.5919 -102.2925 -12.0235 -0.0000 3.2942 -0.6035 -10.3892 -3.3428 33.1476 -0.0000 26.2537 8.2204 -18.0134 -21.0759 4.5882 -42.6610 100.4005 47.5841 0.0000 -5.5956 10.6895 23.8400 -25.0335 32.8623 0.0000 -24.3270 9.1694 -2.4148 -3.4072 3.4171 0.0000 0.0000 -13.3803 22.9824 -11.9590 16.9983 0.0000 0.0000 7.7751 -4.5426 3.1981 4.3199 0.0000 0.0000 -11.0618 -18.2779 5.9882 8.8598 0.0000 0.0000
 4.7303 32.2856 2.1788 -5.0411 -1.7530 0.0992 1.7759 1.6142 0.1164 9.3658 -4.0855 2.7645 -7.0828 6.9431 25.9221 -6.1071 -35.5108 -102.2656 -11.9992 -0.0000 3.4121 -0.5614 -10.3282 -3.1284 33.1476 -0.0000 26.2537 8.2664 -18.0328 -21.1312 4.3594 -42.1529 100.1841 45.7953 0.0000 -5.3349 10.4560 23.7001 -24.6610 32.8623 0.0000 -24.3270 9.1637 -2.4333 -3.3774 3.4169 -0.0000 0.0000 -13.3661 22.9197 -11.9332 16.9329 0.0000 -0.0000 7.7698 -4.5392 3.2151 4.3541 -0.0000 -0.0000 -11.0737 -18.3272 6.0484 8.7796 0.0000 -0.0000
 4.7237 32.2863 2.1803 -5.0329 -1.6871 0.1154 1.7661 1.6362 0.0264 9.3748 -4.1624 2.8428 -7.0354 6.9485 25.9294 -6.1480 -35.4394 -102.2401 -11.9702 -0.0000 3.4204 -0.5612 -10.3479 -3.1211 33.1476 -0.0000 26.2537 8.3479 -18.0672 -21.1813 4.0968 -41.6257 99.9917 43.9408 0.0000 -4.9327 10.3425 23.3858 -24.6922 32.8623 0.0000 -24.3270 9.1520 -2.4475 -3.3702 3.4240 0.0000 0.0000 -13.3370 22.8704 -11.9943 16.9375 0.0000 -0.0000 7.7776 -4.5649 3.2224 4.3434 0.0000 0.0000 -11.0668 -18.3655 6.0373 8.7657 0.0000 -0.0000
 4.7165 32.2869 2.1808 -5.0282 -1.6140 0.1258 1.7631 1.6515 -0.0579 9.3846 -4.2773 2.9299 -7.0193 6.9324 25.9214 -6.1394 -35.3781 -102.2040 -11.9535 -0.0000 3.3371 -0.4555 -10.2920 -2.5477 33.1476 -0.0000 26.2537 8.4057 -18.0814 -21.2288 3.9172 -41.0735 99.8695 42.0853 0.0000 -4.5983 10.1980 23.2352 -24.5125 32.8623 0.0000 -24.3270 9.1372 -2.4916 -3.3523 3.4193 0.0000 0.0000 -13.3298 22.8570 -12.0155 17.0304 -0.0000 -0.0000 7.7903 -4.6091 3.2364 4.3359 -0.0000 -0.0000 -11.0839 -18.3858 6.0135 8.8754 -0.0000 -0.0000
